<?xml version="1.0" encoding="UTF-8"?>
<svg xmlns="http://www.w3.org/2000/svg" width="54" height="32" viewBox="0 0 54 32" fill="none">
  <g id="mapindia-logo-1 1">
    <g id="Group">
      <g id="Group_2">
        <g id="Group_3">
          <path id="Vector" d="M25.618 29.7428H10.6972C10.0151 29.7428 9.33296 29.4088 8.99192 28.8243L1.57414 16.1323C1.2331 15.5478 1.2331 14.7963 1.57414 14.2118L8.99192 1.60331C9.33296 1.01881 10.0151 0.684814 10.6972 0.684814C11.3792 0.684814 12.0613 1.01881 12.4024 1.60331L18.1149 11.3728L23.9127 1.60331C24.2538 1.01881 24.9359 0.684814 25.618 0.684814C26.3001 0.684814 26.9821 1.01881 27.3232 1.60331L34.741 14.2118C35.2525 15.1303 34.9968 16.2993 34.0589 16.8003C33.121 17.3013 31.9273 17.0508 31.4158 16.1323L25.618 6.36282L19.8202 16.1323C19.4791 16.7168 18.797 17.0508 18.1149 17.0508C17.4328 17.0508 16.7507 16.7168 16.4097 16.1323L10.6972 6.36282L5.49619 15.2138L11.8056 25.9018H25.618C26.7264 25.9018 27.579 26.7368 27.579 27.8223C27.579 28.9078 26.7264 29.7428 25.618 29.7428Z" fill="white"></path>
        </g>
      </g>
    </g>
  </g>
</svg>
