<?xml version="1.0" encoding="UTF-8"?>
<svg xmlns="http://www.w3.org/2000/svg" width="150" height="91">
  <g fill="#FFF" fill-rule="evenodd">
    <path d="M52.765 64.614h-32.4c-1.48 0-2.962-.74-3.702-2.036L.555 34.436a4.359 4.359 0 0 1 0-4.258L16.663 2.222C17.403.926 18.884.185 20.366.185c1.48 0 2.962.74 3.702 2.037l12.405 21.661 12.59-21.661C49.803.926 51.284.185 52.764.185c1.481 0 2.963.74 3.703 2.037l16.107 27.956c1.111 2.037.556 4.629-1.48 5.74-2.037 1.11-4.63.555-5.74-1.482l-12.59-21.661-12.59 21.661c-.74 1.296-2.221 2.037-3.702 2.037-1.481 0-2.962-.74-3.703-2.037L20.366 12.775 9.072 32.4l13.7 23.698h29.993c2.407 0 4.259 1.851 4.259 4.258s-1.852 4.258-4.259 4.258zM79.24 71.094h1.667v5.925H79.24v-.74c-.556.555-1.111.925-2.037.925-1.296 0-2.222-.926-2.222-2.407v-3.703h1.667v3.333c0 .926.555 1.296 1.11 1.296.556 0 1.111-.37 1.296-.74v-3.889h.186zM82.018 76.649v-1.482c.555.37 1.48.741 2.407.741.74 0 .925-.185.925-.555 0-.186 0-.186-.37-.37-.185 0-.185 0-.37-.186l-.37-.185c-.186 0-.37-.185-.556-.185-1.296-.37-1.851-.74-1.851-1.852 0-1.11.925-1.85 2.592-1.85.925 0 1.666.184 2.221.554v1.482c-.74-.37-1.48-.556-2.036-.556s-.926.185-.926.556c0 .185.185.37.37.37s.37.185.556.185l.555.185c1.296.37 1.852.926 1.852 1.852 0 .555-.186.925-.741 1.296-.555.37-1.11.555-1.851.555-.926 0-1.852-.185-2.407-.555z"></path>
    <path d="M88.683 76.463a3.066 3.066 0 0 1-.926-2.221c0-.926.37-1.667.926-2.222a3.066 3.066 0 0 1 2.221-.926c.926 0 1.482.37 2.037.926.555.555.74 1.296.74 2.222v.37h-4.258c.185.74.926 1.296 2.037 1.296.74 0 1.296-.185 1.851-.555v1.296c-.555.37-1.296.555-2.221.555-.926 0-1.852-.185-2.407-.74zm3.332-2.962c0-.74-.555-1.11-1.296-1.11-.74 0-1.296.555-1.296 1.11h2.592z" fill-rule="nonzero"></path>
    <path d="M98.68 71.094h1.667v5.925H98.68v-.74c-.555.555-1.11.925-2.036.925-1.296 0-2.222-.926-2.222-2.407v-3.703h1.852v3.333c0 .926.555 1.296 1.11 1.296.556 0 1.111-.37 1.296-.74v-3.889zM101.643 77.204v-5.925h1.666v.741c.37-.555 1.11-.926 1.851-.926.926 0 1.482.37 1.852.926.37-.555 1.11-.926 2.036-.926 1.296 0 2.037.74 2.037 2.407v3.703h-1.666v-3.333c0-.74-.37-1.296-.926-1.296s-.926.37-1.296.741v3.703h-1.666v-3.333c0-.74-.37-1.296-.926-1.296-.555 0-.926.37-1.296.74v3.889h-1.666v.185z"></path>
    <path d="M115.713 71.835c.556-.556 1.482-.926 2.407-.926.926 0 1.667.37 2.407.926.556.555.926 1.296.926 2.222 0 .925-.37 1.666-.926 2.221-.555.556-1.481.926-2.407.926-.925 0-1.666-.37-2.407-.926-.74-.555-.925-1.296-.925-2.221 0-.741.185-1.482.925-2.222zm2.222 3.888c.556 0 .926-.185 1.111-.556.37-.37.37-.74.37-1.11 0-.556-.185-.926-.37-1.111-.37-.37-.74-.556-1.11-.556-.556 0-.927.185-1.112.556-.37.37-.37.74-.37 1.11 0 .556.185.926.37 1.111.37.556.74.556 1.111.556z" fill-rule="nonzero"></path>
    <path d="M138.486 77.204v-5.925h1.666v.926c.185-.37.37-.555.74-.74.371-.186.741-.37 1.297-.37h.185v1.666h-.556c-.74 0-1.48.555-1.666 1.11v3.518h-1.666v-.185zM65.725 77.204v-8.331h1.667l2.406 3.517 2.407-3.517h1.666v8.331h-1.666v-5.74l-2.407 3.333-2.406-3.332v5.739zM124.415 77.204h-1.666v-4.629h-1.111v-1.48h1.11v-.556c0-1.11.741-2.037 2.037-2.037.556 0 1.111 0 1.482.185v1.296c-.37-.185-.741-.185-.926-.185-.556 0-.74.185-.74.74v.371h1.85v1.481h-1.85v4.814h-.186z"></path>
    <path d="m129.229 77.204 3.517-8.517h1.667l3.517 8.517h-1.851l-.74-1.851h-3.518l-.74 1.851h-1.852zm2.962-3.518h2.407l-1.296-2.962-1.111 2.962z" fill-rule="nonzero"></path>
    <path d="M144.225 72.575h-1.11v-1.48h1.11v-1.667h1.667v1.666h1.666v1.481h-1.666v2.407c0 .556.185.926.74.926.37 0 .555 0 .926-.185v1.481c-.37.185-.74.37-1.481.37-1.296 0-1.852-.74-1.852-2.036v-2.963z"></path>
    <g>
      <path d="M70.91 82.018c-.556-.556-1.297-.74-1.852-.74-.556 0-1.111.37-1.111.925 0 .185 0 .37.185.37.185.37.185.37.555.74l2.037 2.037c.185-.37.37-.925.37-1.666h1.667c0 1.11-.37 2.037-.926 2.777l1.666 1.666h-2.036l-.74-.74c-.742.555-1.482.74-2.408.74-.925 0-1.666-.185-2.221-.74-.556-.556-.926-1.111-.926-2.037 0-.555.185-1.11.37-1.48.37-.371.556-.741.926-.927-.37-.37-.37-.925-.37-1.296 0-.74.185-1.11.74-1.666.37-.37 1.11-.74 1.851-.74.741 0 1.482.185 2.222.555v2.222zm-1.297 4.443-2.036-2.036c-.37.185-.74.74-.74 1.296 0 .74.555 1.296 1.48 1.296.556 0 .926-.186 1.296-.556zM77.019 88.313V79.98h3.518c.925 0 1.666.185 2.036.74.556.556.74 1.112.74 1.852s-.184 1.296-.74 1.852c-.555.555-1.296.74-2.036.74h-1.852v3.333H77.02v-.186zm1.666-4.814h1.852c.74 0 1.296-.37 1.296-1.111 0-.74-.556-1.11-1.296-1.11h-1.852v2.22z" fill-rule="nonzero"></path>
      <path d="M86.09 88.313h-1.665V79.98h1.666v3.148c.555-.556 1.11-.926 2.036-.926 1.296 0 2.222.926 2.222 2.407v3.703h-1.666V84.98c0-.926-.556-1.296-1.111-1.296-.555 0-1.11.37-1.296.74v3.888h-.185z"></path>
      <path d="M92.015 83.129c.556-.556 1.296-.926 2.407-.926.926 0 1.666.37 2.407.926.555.555.926 1.296.926 2.221 0 .926-.37 1.667-.926 2.222-.555.555-1.296.926-2.407.926-.926 0-1.666-.37-2.407-.926a3.066 3.066 0 0 1-.925-2.222c0-.925.37-1.666.925-2.221zm2.407 3.888c.37 0 .926-.186 1.111-.556.37-.37.555-.74.555-1.11 0-.556-.185-.926-.555-1.112-.37-.37-.74-.555-1.11-.555-.556 0-.927.185-1.112.555-.37.37-.37.741-.37 1.111 0 .556.185.926.37 1.111.185.37.556.556 1.111.556z" fill-rule="nonzero"></path>
      <path d="M99.05 83.684h-1.11v-1.481h1.11v-1.666h1.667v1.666h1.666v1.481h-1.666v2.407c0 .555.185.926.74.926.37 0 .556 0 .926-.186v1.481c-.37.186-.74.37-1.48.37-1.297 0-1.852-.74-1.852-2.036v-2.962z"></path>
      <path d="M104.05 83.129c.555-.556 1.296-.926 2.406-.926.926 0 1.667.37 2.407.926.556.555.926 1.296.926 2.221 0 .926-.37 1.667-.926 2.222-.555.555-1.296.926-2.407.926-.925 0-1.666-.37-2.406-.926a3.066 3.066 0 0 1-.926-2.222c0-.925.185-1.666.926-2.221zm2.221 3.888c.556 0 .926-.186 1.111-.556.37-.37.37-.74.37-1.11 0-.556-.185-.926-.37-1.112-.37-.37-.74-.555-1.11-.555-.556 0-.926.185-1.112.555-.37.37-.37.741-.37 1.111 0 .556.185.926.37 1.111.37.37.74.556 1.111.556zM114.788 82.388h1.666v5.37c0 2.22-1.666 3.146-3.333 3.146-.925 0-1.666-.185-2.221-.555v-1.481c.555.37 1.296.555 2.036.555.926 0 1.852-.37 1.852-1.666v-.37c-.37.555-1.111.925-1.852.925-.74 0-1.48-.37-2.036-.925-.556-.556-.74-1.296-.74-2.222 0-.926.184-1.481.74-2.222.555-.555 1.11-.925 2.036-.925.74 0 1.481.37 1.852.925v-.555zm0 3.518v-1.481c-.185-.556-.74-.741-1.481-.741-.926 0-1.482.74-1.482 1.481 0 .926.556 1.481 1.482 1.481.74 0 1.296-.185 1.48-.74z" fill-rule="nonzero"></path>
      <path d="M117.75 88.313v-5.925h1.666v.926c.185-.37.37-.556.74-.74.371-.186.741-.371 1.297-.371h.185v1.666h-.555c-.741 0-1.482.556-1.667 1.111v3.518h-1.666v-.186z"></path>
      <path d="M128.488 87.017v1.296c-.185.185-.555.185-.926.185-.74 0-1.11-.186-1.295-.74-.556.555-1.111.74-2.037.74-1.296 0-2.222-.74-2.222-2.037 0-.555.185-1.11.74-1.481.371-.37.927-.555 1.667-.555s1.296.185 1.666.37v-.185c0-.74-.555-1.111-1.48-1.111-.556 0-1.297.185-1.852.555v-1.48c.555-.371 1.296-.556 2.222-.556.74 0 1.48.185 2.036.555.555.37.74.926.74 1.666v2.037c0 .37.186.37.37.37.186.37.371.37.371.37zm-2.407-1.111c-.37-.185-.74-.37-1.296-.37-.74 0-1.11.37-1.11.74 0 .555.37.74 1.11.74.556 0 1.111-.185 1.296-.555v-.555zM134.968 83.129c.556.555.74 1.296.74 2.221 0 .926-.184 1.667-.74 2.222-.555.555-1.11.926-2.036.926-.926 0-1.482-.37-1.852-.926v3.147h-1.666v-8.331h1.666v.74c.37-.555 1.111-.925 1.852-.925.925 0 1.48.185 2.036.926zm-3.888 1.48v1.482c.185.555.74.926 1.481.926.37 0 .926-.186 1.111-.556.37-.37.37-.74.37-1.11 0-.556-.185-.926-.37-1.112-.37-.37-.74-.555-1.11-.555-.741 0-1.297.37-1.482.926z" fill-rule="nonzero"></path>
      <path d="M138.3 88.313h-1.666V79.98h1.667v3.148c.555-.556 1.11-.926 2.036-.926 1.296 0 2.222.926 2.222 2.407v3.703h-1.666V84.98c0-.926-.556-1.296-1.111-1.296-.556 0-1.111.37-1.296.74v3.888h-.185zM143.3 90.534v-1.48c.185.184.555.184.925.184.556 0 .926-.37 1.296-1.11l-2.592-5.74h1.852l1.48 3.888 1.482-3.888h1.666l-2.592 6.48c-.555 1.296-1.296 1.851-2.407 1.851-.37 0-.74 0-1.11-.185z"></path>
    </g>
    <g>
      <path d="M65.725 64.43V43.507h5.184l5.184 8.146 5.184-8.146h5.184V64.43h-4.999V51.654l-5.184 7.776-5.184-7.776V64.43h-5.369z"></path>
      <path d="m88.312 64.43 8.517-20.922h5.184l8.516 20.921h-5.739l-1.666-4.443h-7.591l-1.666 4.443h-5.555zm9.072-8.702h4.259l-2.222-5.555-2.037 5.555zM112.38 64.43V43.507h9.258c2.222 0 4.073.556 5.554 1.852 1.296 1.296 2.037 2.777 2.037 4.813 0 2.037-.74 3.518-2.037 4.814-1.296 1.296-3.147 1.851-5.554 1.851h-3.888v7.776h-5.37v-.185zm5.37-12.22h3.518c1.48 0 2.592-.74 2.592-2.037 0-1.296-.926-2.036-2.592-2.036h-3.518v4.073z" fill-rule="nonzero"></path>
    </g>
  </g>
</svg>
